<svg viewBox="0 0 32 32" xmlns="http://www.w3.org/2000/svg" xmlns:xlink="http://www.w3.org/1999/xlink" version="1.1" style="enable-background:new 0 0 32 32;" xml:space="preserve">
<path fill="#25a5d8" d="M27,6h-1.18C25.4,4.84,24.3,4,23,4H9C7.7,4,6.6,4.84,6.18,6H5C3.35,6,2,7.35,2,9v1.29   c0,2.06,1.23,3.88,3.14,4.64l2.49,0.99c0,0,0,0,0,0c0.95,1.56,2.28,2.89,3.91,3.82l1.12,0.64c0.21,0.12,0.34,0.34,0.34,0.58   c0,0.25-0.14,0.48-0.37,0.6l-1.97,0.99C9.64,23.06,9,24.09,9,25.24V28c0,0.55,0.45,1,1,1h12c0.55,0,1-0.45,1-1v-2.76   c0-1.14-0.64-2.17-1.66-2.68l-1.97-0.99c-0.23-0.11-0.37-0.34-0.37-0.6c0-0.24,0.13-0.46,0.34-0.58l1.12-0.64   c1.63-0.93,2.96-2.26,3.91-3.82c0,0,0,0,0,0l2.49-0.99c1.91-0.76,3.14-2.59,3.14-4.64V9C30,7.35,28.65,6,27,6z M5.89,13.08   C4.74,12.62,4,11.53,4,10.29V9c0-0.55,0.45-1,1-1h1v2.2c0,1.07,0.17,2.11,0.47,3.11L5.89,13.08z M19.46,18.01l-1.12,0.64   C17.52,19.13,17,20.01,17,20.97c0,1.02,0.57,1.93,1.48,2.39l1.97,0.99c0.34,0.17,0.55,0.51,0.55,0.89V27H11v-1.76   c0-0.38,0.21-0.72,0.55-0.89l1.97-0.99C14.43,22.9,15,21.99,15,20.97c0-0.96-0.52-1.84-1.34-2.32l-1.12-0.64   C9.74,16.41,8,13.42,8,10.2V7c0-0.55,0.45-1,1-1h14c0.55,0,1,0.45,1,1v3.2C24,13.42,22.26,16.41,19.46,18.01z M28,10.29   c0,1.23-0.74,2.33-1.89,2.79l-0.58,0.23c0.3-1,0.47-2.04,0.47-3.11V8h1c0.55,0,1,0.45,1,1V10.29z"/>

</svg>