<svg width="32" height="32" xmlns="http://www.w3.org/2000/svg" xmlns:svg="http://www.w3.org/2000/svg" clip-rule="evenodd" fill-rule="evenodd" stroke-linejoin="round" version="1.1" xml:space="preserve">
<style>	path{stroke:#25a5d8; fill:transparent; fill-opacity="0"; stroke-width:2.3;} </style>
  <path d="m6.68,11.32l2.37,2.36c0.43,0.43 1.14,0.43 1.58,0l3.15,-3.15c0.43,-0.44 0.43,-1.14 0,-1.58l-2.36,-2.37l2.36,-2.36c0.31,-0.31 0.41,-0.78 0.25,-1.19c-0.16,-0.41 -0.55,-0.69 -0.99,-0.71l-9.85,-0.4c-0.31,-0.01 -0.61,0.11 -0.83,0.33c-0.22,0.22 -0.34,0.52 -0.33,0.83l0.4,9.85c0.02,0.44 0.3,0.83 0.71,0.99c0.41,0.16 0.88,0.06 1.19,-0.25l2.36,-2.36z" />
  <path d="m22.99,11.15l2.37,2.36c0.43,0.43 1.14,0.43 1.58,0l3.15,-3.15c0.43,-0.44 0.43,-1.14 0,-1.58l-2.36,-2.37l2.36,-2.36c0.31,-0.31 0.41,-0.78 0.25,-1.19c-0.16,-0.41 -0.55,-0.69 -0.99,-0.71l-9.85,-0.4c-0.31,-0.01 -0.61,0.11 -0.83,0.33c-0.22,0.22 -0.34,0.52 -0.33,0.83l0.4,9.85c0.02,0.44 0.3,0.83 0.71,0.99c0.41,0.16 0.88,0.06 1.19,-0.25l2.36,-2.36z" transform="rotate(90 24.3665 7.8)"/>
  <path d="m22.99,27.65l2.37,2.36c0.43,0.43 1.14,0.43 1.58,0l3.15,-3.15c0.43,-0.44 0.43,-1.14 0,-1.58l-2.36,-2.37l2.36,-2.36c0.31,-0.31 0.41,-0.78 0.25,-1.19c-0.16,-0.41 -0.55,-0.69 -0.99,-0.71l-9.85,-0.4c-0.31,-0.01 -0.61,0.11 -0.83,0.33c-0.22,0.22 -0.34,0.52 -0.33,0.83l0.4,9.85c0.02,0.44 0.3,0.83 0.71,0.99c0.41,0.16 0.88,0.06 1.19,-0.25l2.36,-2.36z" transform="rotate(-180 24.3665 24.3)"/>
  <path d="m6.29,27.65l2.37,2.36c0.43,0.43 1.14,0.43 1.58,0l3.15,-3.15c0.43,-0.44 0.43,-1.14 0,-1.58l-2.36,-2.37l2.36,-2.36c0.31,-0.31 0.41,-0.78 0.25,-1.19c-0.16,-0.41 -0.55,-0.69 -0.99,-0.71l-9.85,-0.4c-0.31,-0.01 -0.61,0.11 -0.83,0.33c-0.22,0.22 -0.34,0.52 -0.33,0.83l0.4,9.85c0.02,0.44 0.3,0.83 0.71,0.99c0.41,0.16 0.88,0.06 1.19,-0.25l2.36,-2.36z" transform="rotate(-90 7.6665 24.3)"/>
</svg>